<?xml version="1.0" encoding="iso-8859-1"?>
<!-- Generator: Adobe Illustrator 19.0.0, SVG Export Plug-In . SVG Version: 6.00 Build 0)  -->
<svg version="1.1" id="Layer_1" xmlns="http://www.w3.org/2000/svg" xmlns:xlink="http://www.w3.org/1999/xlink" x="0px" y="0px"
	 viewBox="0 0 512 512" style="enable-background:new 0 0 512 512;" xml:space="preserve">
<g>
	<g>
		<path d="M395.183,285.156c-10.974-14.973-27.917-23.439-46.481-23.439h-1.008l4.115-57.594c0.377-5.278-1.456-10.217-5.06-14.089
			c-3.606-3.872-8.657-5.815-13.949-5.815H124.671c-5.292,0-10.343,1.882-13.949,5.754c-3.604,3.872-5.438,8.91-5.06,14.187
			l17.776,248.195l-6.67,28.156c-1.777,7.517-0.05,15.6,4.743,21.658c4.792,6.059,11.97,9.831,19.695,9.831h175.057
			c7.724,0,14.903-3.792,19.695-9.85c4.792-6.058,6.52-14.002,4.743-21.518l-6.67-28.155l10.934-152.646h3.736
			c6.288,0,12.025,2.786,15.741,7.858c3.717,5.07,4.764,11.357,2.871,17.353l-18.696,59.205c-3.169,10.037,2.4,20.727,12.438,23.894
			c1.908,0.603,3.839,0.882,5.741,0.882c8.094,0,15.603-5.201,18.168-13.33l18.696-59.176
			C409.248,318.811,406.158,300.129,395.183,285.156z M296.271,458.528l3.557,15.357H157.644l3.557-15.357
			c0.445-1.88,0.601-3.978,0.464-5.906L148.552,269.34h160.367l-13.111,183.123C295.67,454.392,295.827,456.647,296.271,458.528z
			 M311.648,231.226H145.823l-0.682-8.893H312.33L311.648,231.226z"/>
	</g>
</g>
<g>
	<g>
		<path d="M332.216,0h-33.032c-10.525,0-19.057,8.532-19.057,19.057s8.533,19.057,19.057,19.057h33.032
			c6.304,0,11.434,5.13,11.434,11.434s-5.13,11.434-11.434,11.434H219.144c-29.423,0-53.36,23.937-53.36,53.36
			c0,29.423,23.937,53.36,53.36,53.36h34.167c10.525,0,19.057-8.532,19.057-19.057c0-10.525-8.532-19.057-19.057-19.057h-34.167
			c-8.407,0-15.246-6.839-15.246-15.246c0-8.407,6.839-15.246,15.246-15.246h113.072c27.321,0,49.548-22.227,49.548-49.548
			S359.537,0,332.216,0z"/>
	</g>
</g>
<g>
	<g>
		<path d="M255.987,0h-7.623c-10.525,0-19.057,8.532-19.057,19.057s8.532,19.057,19.057,19.057h7.623
			c10.525,0,19.057-8.532,19.057-19.057S266.512,0,255.987,0z"/>
	</g>
</g>
<g>
</g>
<g>
</g>
<g>
</g>
<g>
</g>
<g>
</g>
<g>
</g>
<g>
</g>
<g>
</g>
<g>
</g>
<g>
</g>
<g>
</g>
<g>
</g>
<g>
</g>
<g>
</g>
<g>
</g>
</svg>
