<?xml version="1.0" encoding="iso-8859-1"?>
<!-- Generator: Adobe Illustrator 18.0.0, SVG Export Plug-In . SVG Version: 6.00 Build 0)  -->
<!DOCTYPE svg PUBLIC "-//W3C//DTD SVG 1.1//EN" "http://www.w3.org/Graphics/SVG/1.1/DTD/svg11.dtd">
<svg version="1.1" id="Capa_1" xmlns="http://www.w3.org/2000/svg" xmlns:xlink="http://www.w3.org/1999/xlink" x="0px" y="0px"
	 viewBox="0 0 297 297" style="enable-background:new 0 0 297 297;" xml:space="preserve">
<path d="M205.116,197.448c23.89-44.96,51.115-86.334,51.115-122.333c0-28.742-11.388-49.461-33.849-61.579
	C205.264,4.301,181.787,0,148.5,0S91.736,4.301,74.619,13.536C52.158,25.654,40.77,46.372,40.77,75.115
	c0,35.999,27.225,77.374,51.115,122.334c3.816,7.182,10.287,30.86,10.287,30.86h-2.595c-5.458,0-9.884,4.425-9.884,9.884v34.18
	c0,13.579,11.048,24.627,24.627,24.627h68.36c13.579,0,24.627-11.048,24.627-24.627v-34.18c0-5.458-4.425-9.884-9.884-9.884h-2.595
	C194.829,228.309,201.3,204.63,205.116,197.448z M158.384,179.386V20.384c15.421,2.299,29.156,12.566,29.156,54.731
	c0,30.392-7.565,68.908-20.366,104.271H158.384z M129.826,179.386c-12.801-35.363-20.366-73.879-20.366-104.271
	c0-42.165,13.736-52.432,29.156-54.731v159.002H129.826z M236.463,75.115c0,30.163-15.562,68.855-41.801,104.271h-6.536
	c12.253-35.829,19.181-73.154,19.181-104.271c0-21.612-3.374-38.186-10.236-50.29C224.55,32.259,236.463,48.248,236.463,75.115z
	 M60.537,75.115c0-26.866,11.914-42.855,39.393-50.29c-6.863,12.104-10.236,28.678-10.236,50.29
	c0,31.117,6.928,68.442,19.181,104.271h-6.537C76.097,143.969,60.537,105.278,60.537,75.115z M113.29,199.153h25.327v29.156h-15.608
	L113.29,199.153z M187.54,248.077v24.297c0,2.679-2.18,4.86-4.86,4.86h-68.36c-2.679,0-4.86-2.18-4.86-4.86v-24.297H187.54z
	 M183.71,199.153l-9.719,29.156h-15.608v-29.156H183.71z"/>
<g>
</g>
<g>
</g>
<g>
</g>
<g>
</g>
<g>
</g>
<g>
</g>
<g>
</g>
<g>
</g>
<g>
</g>
<g>
</g>
<g>
</g>
<g>
</g>
<g>
</g>
<g>
</g>
<g>
</g>
</svg>
