<?xml version="1.0" encoding="iso-8859-1"?>
<!-- Generator: Adobe Illustrator 19.0.0, SVG Export Plug-In . SVG Version: 6.00 Build 0)  -->
<svg version="1.1" id="Layer_1" xmlns="http://www.w3.org/2000/svg" xmlns:xlink="http://www.w3.org/1999/xlink" x="0px" y="0px"
	 viewBox="0 0 297 297" style="enable-background:new 0 0 297 297;" xml:space="preserve">
<g>
	<g>
		<path d="M297,121.784c0-4.329-2.795-8.164-6.917-9.489l-53.598-17.227l53.598-17.227c4.122-1.325,6.917-5.159,6.917-9.489
			c0-4.329-2.795-8.164-6.917-9.489L151.549,14.337c-1.982-0.637-4.117-0.637-6.099,0L6.917,58.864C2.795,60.189,0,64.023,0,68.353
			c0,4.329,2.795,8.164,6.917,9.489l53.598,17.227L6.917,112.295C2.795,113.62,0,117.455,0,121.784s2.795,8.164,6.917,9.489
			L60.516,148.5L6.917,165.727C2.795,167.052,0,170.886,0,175.215c0,4.329,2.795,8.164,6.917,9.489l53.598,17.227L6.917,219.158
			C2.795,220.483,0,224.318,0,228.647c0,4.329,2.795,8.164,6.917,9.489l138.534,44.527c0.991,0.318,2.021,0.478,3.049,0.478
			s2.059-0.16,3.049-0.478l138.534-44.527c4.122-1.325,6.917-5.159,6.917-9.489s-2.795-8.164-6.917-9.489l-53.598-17.227
			l53.598-17.227c4.122-1.325,6.917-5.159,6.917-9.489s-2.795-8.164-6.917-9.489L236.484,148.5l53.599-17.227
			C294.205,129.948,297,126.113,297,121.784z M42.537,68.353L148.5,34.294l105.963,34.058L148.5,102.41L42.537,68.353z
			 M254.463,228.647L148.5,262.705L42.537,228.647L93.086,212.4l52.364,16.831c0.991,0.318,2.021,0.478,3.049,0.478
			c1.028,0,2.059-0.16,3.049-0.478l52.364-16.831L254.463,228.647z M254.463,175.215L148.5,209.274L42.537,175.215l50.55-16.247
			l52.363,16.83c0.991,0.318,2.021,0.478,3.049,0.478c1.028,0,2.059-0.16,3.049-0.478l52.363-16.83L254.463,175.215z M148.5,155.841
			L42.537,121.784l50.549-16.247l52.364,16.83c0.991,0.318,2.021,0.478,3.049,0.478c1.028,0,2.059-0.16,3.049-0.478l52.364-16.83
			l50.549,16.247L148.5,155.841z"/>
	</g>
</g>
<g>
</g>
<g>
</g>
<g>
</g>
<g>
</g>
<g>
</g>
<g>
</g>
<g>
</g>
<g>
</g>
<g>
</g>
<g>
</g>
<g>
</g>
<g>
</g>
<g>
</g>
<g>
</g>
<g>
</g>
</svg>
